#!OML:ASF E:\Steps\Project 1\Capture day 1\Session 2\Subject.ASF
:FULLY-SPECIFIED
:DEGREES
303
root 3.5312 17.217 9.51569 -145.322 -1.96044 174.259
lowerback -18.3711 -5.26347 -2.9359
upperback 1.04578 -6.5043 0.549466
thorax 11.8773 -3.28354 0.404048
lowerneck 0.0272314 -3.09377 -3.16876
upperneck 18.3405 -2.6741 -1.02213
head 5.56451 -1.13177 0.123262
rclavicle -2.97183e-014 -1.05356e-014
rhumerus -43.6915 -8.76632 -80.0138
rradius 43.4736
rwrist -8.63896
rhand -5.96233 -53.1601
rfingers 7.12502
rthumb 19.8686 -82.1645
lclavicle -2.97183e-014 -1.05356e-014
lhumerus -31.4783 -15.1263 79.8911
lradius 42.8696
lwrist -2.20219
lhand -19.6891 -14.1872
lfingers 7.12502
lthumb 6.63999 15.6887
rfemur -44.5451 8.02242 11.1854
rtibia 18.05
rfoot -17.7118 -5.30303
rtoes -9.05507
lfemur -50.1591 -10.8599 -19.3657
ltibia 62.8062
lfoot -11.2737 0.20444
ltoes -28.0292
304
root 3.5429 17.2188 9.48552 -145.462 -1.79619 174.205
lowerback -18.493 -5.18977 -3.22104
upperback 1.05652 -6.33573 0.494
thorax 11.9777 -3.22049 0.539349
lowerneck 0.121729 -3.15622 -3.22617
upperneck 18.4441 -2.74042 -0.9926
head 5.58347 -1.15876 0.140147
rclavicle 6.55989e-015 5.96354e-016
rhumerus -43.6633 -8.92052 -80.0512
rradius 43.4805
rwrist -8.50911
rhand -6.49156 -53.0174
rfingers 7.12502
rthumb 19.3598 -82.0737
lclavicle 6.55989e-015 5.96354e-016
lhumerus -31.862 -14.3279 79.9833
lradius 42.0689
lwrist -2.71785
lhand -19.7541 -13.9928
lfingers 7.12502
lthumb 6.5772 15.885
rfemur -44.2493 8.13864 11.147
rtibia 17.9313
rfoot -17.7416 -5.1947
rtoes -8.71102
lfemur -50.8212 -11.1921 -19.5899
ltibia 61.2621
lfoot -11.2474 -0.290254
ltoes -28.5859
305
root 3.55615 17.2241 9.44954 -145.762 -1.58051 174.161
lowerback -18.4074 -5.06567 -3.57212
upperback 1.16282 -6.08587 0.439446
thorax 12.0699 -3.12359 0.749854
lowerneck -0.129202 -3.3016 -3.1803
upperneck 18.7781 -2.8966 -1.0289
head 5.73161 -1.22969 0.10948
rclavicle -1.39149e-015 2.18663e-015
rhumerus -43.4612 -9.10442 -80.0636
rradius 43.302
rwrist -8.6567
rhand -7.01586 -52.4472
rfingers 7.12502
rthumb 18.8556 -81.5533
lclavicle -1.39149e-015 2.18663e-015
lhumerus -31.9308 -13.5648 80.0646
lradius 41.1739
lwrist -3.04701
lhand -19.8443 -13.8638
lfingers 7.12502
lthumb 6.49015 16.0168
rfemur -43.7521 8.21391 11.1945
rtibia 17.7978
rfoot -17.7464 -4.91696
rtoes -8.26693
lfemur -51.1144 -11.4668 -19.8198
ltibia 59.5373
lfoot -11.1112 -1.03874
ltoes -27.4935
306
root 3.55459 17.2334 9.41166 -146.342 -1.50119 174.254
lowerback -18.0337 -4.84647 -3.48825
upperback 1.33196 -5.80407 0.324992
thorax 12.0093 -2.98197 0.682792
lowerneck -0.397857 -3.45249 -2.99793
upperneck 19.0651 -3.07458 -1.08249
head 5.86502 -1.30488 0.0487237
rclavicle -3.95581e-014 -8.94531e-015
rhumerus -43.3737 -9.34596 -80.0931
rradius 43.2633
rwrist -8.87331
rhand -6.7641 -52.9577
rfingers 7.12502
rthumb 19.0977 -82.0401
lclavicle -3.95581e-014 -8.94531e-015
lhumerus -31.9238 -12.9423 80.0704
lradius 40.2447
lwrist -2.93657
lhand -19.7137 -14.0196
lfingers 7.12502
lthumb 6.6162 15.857
rfemur -42.7944 7.96419 11.7031
rtibia 17.5548
rfoot -17.7525 -4.38718
rtoes -8.33223
lfemur -50.9494 -11.9133 -19.9536
ltibia 57.6744
lfoot -10.9864 -1.83215
ltoes -27.1862
307
root 3.57283 17.2288 9.41346 -145.836 -1.64956 174.06
lowerback -18.3296 -4.86636 -3.80294
upperback 1.0087 -5.7694 0.305673
thorax 11.8403 -2.98888 0.838835
lowerneck -0.239211 -3.54091 -2.9017
upperneck 19.277 -3.16387 -1.07253
head 5.90393 -1.3272 0.0336514
rclavicle -1.64991e-014 -1.59028e-014
rhumerus -43.6217 -9.38533 -80.1189
rradius 43.3794
rwrist -9.0063
rhand -6.14563 -53.3763
rfingers 7.12502
rthumb 19.6924 -82.3988
lclavicle -1.64991e-014 -1.59028e-014
lhumerus -32.2273 -12.2985 80.0566
lradius 39.3001
lwrist -2.73965
lhand -19.1497 -14.0341
lfingers 7.12502
lthumb 7.16067 15.8248
rfemur -43.4761 7.76325 11.5065
rtibia 17.8378
rfoot -17.778 -4.63272
rtoes -8.39925
lfemur -52.4992 -12.4858 -19.8674
ltibia 56.4367
lfoot -10.9161 -2.7032
ltoes -27.3451
308
root 3.58181 17.2303 9.38796 -145.961 -1.48554 174.032
lowerback -18.3821 -4.77605 -4.00901
upperback 0.903222 -5.6036 0.23588
thorax 11.7539 -2.92373 0.92657
lowerneck 0.038471 -3.56603 -2.95207
upperneck 19.5428 -3.16835 -0.916601
head 5.94455 -1.30281 0.0953482
rclavicle -1.43125e-014 3.97569e-016
rhumerus -43.896 -9.40161 -80.1079
rradius 43.4789
rwrist -8.81467
rhand -5.43943 -53.3042
rfingers 7.12502
rthumb 20.3712 -82.2557
lclavicle -1.43125e-014 3.97569e-016
lhumerus -32.7506 -11.4615 79.9773
lradius 38.5774
lwrist -2.67269
lhand -18.8438 -13.7332
lfingers 7.12502
lthumb 7.45593 16.1154
rfemur -43.3862 7.74658 11.5588
rtibia 18.0454
rfoot -17.946 -4.41818
rtoes -8.02296
lfemur -52.8901 -12.8656 -19.9377
ltibia 54.7273
lfoot -10.8791 -3.22447
ltoes -26.2708
309
root 3.57872 17.2373 9.33411 -146.701 -1.14485 174.232
lowerback -18.2302 -4.54566 -3.91913
upperback 1.15301 -5.29502 0.11468
thorax 11.9107 -2.76756 0.833756
lowerneck 0.0198434 -3.57755 -2.92984
upperneck 19.7607 -3.15663 -0.887179
head 6.01676 -1.28453 0.101232
rclavicle 1.63003e-014 -2.127e-014
rhumerus -43.8903 -9.47672 -80.2135
rradius 43.5725
rwrist -8.70944
rhand -5.20422 -54.0113
rfingers 7.12502
rthumb 20.5972 -82.9386
lclavicle 1.63003e-014 -2.127e-014
lhumerus -33.0583 -10.5341 79.7687
lradius 37.9088
lwrist -2.75393
lhand -19.4916 -13.5462
lfingers 7.12502
lthumb 6.83066 16.3236
rfemur -42.35 7.86872 11.9982
rtibia 17.9474
rfoot -18.1457 -3.89606
rtoes -8.11626
lfemur -52.1389 -13.0915 -20.0603
ltibia 52.5988
lfoot -10.9096 -3.46269
ltoes -25.8676
